<?xml version="1.0" standalone="no"?>
<!DOCTYPE svg PUBLIC "-//W3C//DTD SVG 20010904//EN"
 "http://www.w3.org/TR/2001/REC-SVG-20010904/DTD/svg10.dtd">
<svg version="1.0" xmlns="http://www.w3.org/2000/svg"
 width="3840.000000pt" height="2160.000000pt" viewBox="0 0 3840.000000 2160.000000"
 preserveAspectRatio="xMidYMid meet">
<metadata>
Created by potrace 1.16, written by Peter Selinger 2001-2019
</metadata>
<g transform="translate(0.000000,2160.000000) scale(0.100000,-0.100000)"
fill="#000000" stroke="none">
<path d="M19785 11954 c-148 -28 -300 -120 -387 -235 -87 -115 -113 -216 -105
-402 8 -181 46 -275 161 -396 99 -104 198 -163 468 -280 236 -102 300 -145
334 -226 53 -127 -15 -248 -165 -291 -85 -25 -239 -16 -315 19 -85 39 -144 87
-205 166 l-55 70 -40 -23 c-278 -158 -327 -189 -322 -202 15 -38 97 -146 155
-205 107 -107 262 -187 436 -225 107 -23 351 -24 451 -1 346 78 535 297 534
620 -1 185 -57 326 -179 448 -109 108 -189 156 -467 279 -192 85 -230 106
-279 151 -97 89 -91 240 13 313 34 24 54 30 115 34 120 7 199 -31 275 -134
l40 -53 103 66 c176 111 239 155 239 165 0 20 -88 134 -147 189 -64 61 -169
118 -268 144 -87 23 -291 28 -390 9z"/>
<path d="M18446 11935 c-2 -6 -4 -376 -5 -823 -2 -910 0 -882 -70 -945 -48
-43 -106 -60 -186 -55 -103 7 -159 45 -237 162 -23 33 -42 62 -43 64 -3 4
-336 -197 -353 -213 -11 -10 -10 -19 6 -51 59 -116 177 -231 298 -292 235
-118 579 -103 786 34 110 74 186 185 230 341 22 78 22 80 23 933 l0 855 -222
0 c-144 0 -224 -3 -227 -10z"/>
</g>
</svg>
